<svg xmlns="http://www.w3.org/2000/svg" width="1365" height="645" viewBox="0 0 546 258" font-family="Arial, sans-serif">
  <defs>
    <marker id="ah" viewBox="0 0 8 6" refX="8" refY="3"
      markerWidth="4" markerHeight="3" orient="auto">
      <path d="M0.5,0.5 L7,3 L0.5,5.5" fill="none" stroke="#94A3B8"
        stroke-width="1.2" stroke-linejoin="round" stroke-linecap="round"/>
    </marker>
    <filter id="shadow" x="-6%" y="-8%" width="112%" height="128%">
      <feDropShadow dx="0" dy="0.5" stdDeviation="0.8"
        flood-color="#000" flood-opacity="0.05"/>
    </filter>
  </defs>
  <rect width="546" height="258" fill="#F8F9FB" rx="3"/>
  <text x="273" y="11" text-anchor="middle" font-size="6" font-weight="700" fill="#1E293B">Phase 5 — Post-mainnet Decentralization (DAO + Slashing)</text>
  <rect x="198" y="16" width="150" height="10" rx="3" fill="#fff" stroke="#E2E5EA" stroke-width="0.4"/>
  <rect x="203" y="18.5" width="5" height="5" rx="2.5" fill="#fff" stroke="#E2E5EA" stroke-width="0.4"/>
  <text x="211" y="22.5" font-size="3.5" fill="#1E293B">Actor</text>
  <rect x="243" y="18.5" width="5" height="5" rx="1.5" fill="#fff" stroke="#E2E5EA" stroke-width="0.4"/>
  <rect x="244" y="19.5" width="0.8" height="3" rx="0.4" fill="#3B82F6"/>
  <text x="251" y="22.5" font-size="3.5" fill="#1E293B">Protocol</text>
  <rect x="291" y="18.5" width="5" height="5" rx="1.5" fill="#fff" stroke="#E2E5EA" stroke-width="0.4"/>
  <rect x="292" y="19.5" width="0.8" height="3" rx="0.4" fill="#F59E0B"/>
  <text x="299" y="22.5" font-size="3.5" fill="#1E293B">External</text>
  <path d="M74.2,46.0 C74.2,70.0 136.0,70.0 136.0,94.0" fill="none" stroke="#94A3B8" stroke-width="0.5" marker-end="url(#ah)"/>
  <path d="M225.6,46.0 C225.6,70.0 250.0,70.0 250.0,94.0" fill="none" stroke="#94A3B8" stroke-width="0.5" marker-end="url(#ah)"/>
  <path d="M225.6,46.0 C225.6,70.0 369.4,70.0 369.4,94.0" fill="none" stroke="#94A3B8" stroke-width="0.5" marker-end="url(#ah)"/>
  <path d="M436.2,46.0 C436.2,70.0 369.4,70.0 369.4,94.0" fill="none" stroke="#94A3B8" stroke-width="0.5" marker-end="url(#ah)"/>
  <path d="M333.6,46.0 C333.6,70.0 136.0,70.0 136.0,94.0" fill="none" stroke="#94A3B8" stroke-width="0.5" marker-end="url(#ah)"/>
  <path d="M136.0,114.0 C136.0,135.0 256.1,135.0 256.1,156.0" fill="none" stroke="#94A3B8" stroke-width="0.5" marker-end="url(#ah)"/>
  <path d="M136.0,114.0 C136.0,135.0 114.7,135.0 114.7,156.0" fill="none" stroke="#94A3B8" stroke-width="0.5" marker-end="url(#ah)"/>
  <path d="M178.4,112.0 C185.0,130.0 193.8,130.0 200.4,114.0" fill="none" stroke="#94A3B8" stroke-width="0.5" marker-end="url(#ah)"/>
  <path d="M250.0,114.0 Q198.1,166.0 253.0,156.0" fill="none" stroke="#94A3B8" stroke-width="0.5" marker-end="url(#ah)"/>
  <path d="M253.0,156.0 Q202.1,166.0 256.1,218.0" fill="none" stroke="#94A3B8" stroke-width="0.5" marker-end="url(#ah)"/>
  <path d="M369.4,114.0 C369.4,135.0 256.1,135.0 256.1,156.0" fill="none" stroke="#94A3B8" stroke-width="0.5" marker-end="url(#ah)"/>
  <path d="M256.1,176.0 C256.1,197.0 365.9,197.0 365.9,218.0" fill="none" stroke="#94A3B8" stroke-width="0.5" marker-end="url(#ah)"/>
  <path d="M256.1,176.0 C256.1,197.0 148.7,197.0 148.7,218.0" fill="none" stroke="#94A3B8" stroke-width="0.5" marker-end="url(#ah)"/>
  <path d="M256.1,176.0 C256.1,197.0 473.9,197.0 473.9,218.0" fill="none" stroke="#94A3B8" stroke-width="0.5" marker-end="url(#ah)"/>
  <path d="M256.1,176.0 C256.1,197.0 256.1,197.0 256.1,218.0" fill="none" stroke="#94A3B8" stroke-width="0.5" marker-end="url(#ah)"/>
  <path d="M114.7,176.0 C114.7,197.0 148.7,197.0 148.7,218.0" fill="none" stroke="#94A3B8" stroke-width="0.5" marker-end="url(#ah)"/>
  <g filter="url(#shadow)">
    <rect x="30.0" y="32.0" width="88.4" height="14" rx="7" fill="#fff" stroke="#E2E5EA" stroke-width="0.5"/>
    <text x="74.2" y="40.8" text-anchor="middle" font-size="4.8" font-weight="600" fill="#1E293B">Token Holders</text>
  </g>
  <g filter="url(#shadow)">
    <rect x="183.2" y="32.0" width="84.8" height="14" rx="7" fill="#fff" stroke="#E2E5EA" stroke-width="0.5"/>
    <text x="225.6" y="40.8" text-anchor="middle" font-size="4.8" font-weight="600" fill="#1E293B">Maker</text>
  </g>
  <g filter="url(#shadow)">
    <rect x="399.2" y="32.0" width="74.0" height="14" rx="7" fill="#fff" stroke="#E2E5EA" stroke-width="0.5"/>
    <text x="436.2" y="40.8" text-anchor="middle" font-size="4.8" font-weight="600" fill="#1E293B">Agent</text>
  </g>
  <g filter="url(#shadow)">
    <rect x="290.0" y="32.0" width="87.2" height="14" rx="7" fill="#fff" stroke="#E2E5EA" stroke-width="0.5"/>
    <text x="333.6" y="40.8" text-anchor="middle" font-size="4.8" font-weight="600" fill="#1E293B">Admin Multisig</text>
  </g>
  <g filter="url(#shadow)">
    <rect x="93.6" y="94.0" width="84.8" height="20" rx="3" fill="#fff" stroke="#E2E5EA" stroke-width="0.5"/>
    <rect x="96.6" y="97.0" width="1.4" height="14" rx="0.6" fill="#3B82F6"/>
    <text x="136.0" y="103.5" text-anchor="middle" font-size="4.8" font-weight="600" fill="#1E293B">Governance</text>
    <text x="136.0" y="108.5" text-anchor="middle" font-size="3.5" fill="#64748B">Proposals + voting</text>
  </g>
  <g filter="url(#shadow)">
    <rect x="200.4" y="94.0" width="99.2" height="20" rx="3" fill="#fff" stroke="#E2E5EA" stroke-width="0.5"/>
    <rect x="203.4" y="97.0" width="1.4" height="14" rx="0.6" fill="#3B82F6"/>
    <text x="250.0" y="103.5" text-anchor="middle" font-size="4.8" font-weight="600" fill="#1E293B">Agent Stake</text>
    <text x="250.0" y="108.5" text-anchor="middle" font-size="3.5" fill="#64748B">Lockup + slash trigger</text>
  </g>
  <g filter="url(#shadow)">
    <rect x="321.6" y="94.0" width="95.6" height="20" rx="3" fill="#fff" stroke="#E2E5EA" stroke-width="0.5"/>
    <rect x="324.6" y="97.0" width="1.4" height="14" rx="0.6" fill="#3B82F6"/>
    <text x="369.4" y="103.5" text-anchor="middle" font-size="4.8" font-weight="600" fill="#1E293B">Agent Account</text>
    <text x="369.4" y="108.5" text-anchor="middle" font-size="3.5" fill="#64748B">Policy + sig identity</text>
  </g>
  <g filter="url(#shadow)">
    <rect x="210.1" y="156.0" width="92.0" height="20" rx="3" fill="#fff" stroke="#E2E5EA" stroke-width="0.5"/>
    <rect x="213.1" y="159.0" width="1.4" height="14" rx="0.6" fill="#3B82F6"/>
    <text x="256.1" y="165.5" text-anchor="middle" font-size="4.8" font-weight="600" fill="#1E293B">AdManager</text>
    <text x="256.1" y="170.5" text-anchor="middle" font-size="3.5" fill="#64748B">Fees + dispute paths</text>
  </g>
  <g filter="url(#shadow)">
    <rect x="75.9" y="156.0" width="77.6" height="20" rx="3" fill="#fff" stroke="#E2E5EA" stroke-width="0.5"/>
    <rect x="78.9" y="159.0" width="1.4" height="14" rx="0.6" fill="#3B82F6"/>
    <text x="114.7" y="165.5" text-anchor="middle" font-size="4.8" font-weight="600" fill="#1E293B">OrderPortal</text>
    <text x="114.7" y="170.5" text-anchor="middle" font-size="3.5" fill="#64748B">Cancel + dispute</text>
  </g>
  <g filter="url(#shadow)">
    <rect x="322.3" y="218.0" width="87.2" height="20" rx="3" fill="#fff" stroke="#E2E5EA" stroke-width="0.5"/>
    <rect x="325.3" y="221.0" width="1.4" height="14" rx="0.6" fill="#3B82F6"/>
    <text x="365.9" y="227.5" text-anchor="middle" font-size="4.8" font-weight="600" fill="#1E293B">BLSKeyRegistry</text>
    <text x="365.9" y="232.5" text-anchor="middle" font-size="3.5" fill="#64748B">v2 multi-slot</text>
  </g>
  <g filter="url(#shadow)">
    <rect x="107.5" y="218.0" width="82.4" height="20" rx="3" fill="#fff" stroke="#E2E5EA" stroke-width="0.5"/>
    <rect x="110.5" y="221.0" width="1.4" height="14" rx="0.6" fill="#3B82F6"/>
    <text x="148.7" y="227.5" text-anchor="middle" font-size="4.8" font-weight="600" fill="#1E293B">MerkleManager</text>
    <text x="148.7" y="232.5" text-anchor="middle" font-size="3.5" fill="#64748B">Side-bound MMR</text>
  </g>
  <g filter="url(#shadow)">
    <rect x="431.5" y="218.0" width="84.8" height="20" rx="3" fill="#fff" stroke="#E2E5EA" stroke-width="0.5"/>
    <rect x="434.5" y="221.0" width="1.4" height="14" rx="0.6" fill="#3B82F6"/>
    <text x="473.9" y="227.5" text-anchor="middle" font-size="4.8" font-weight="600" fill="#1E293B">Verifier</text>
    <text x="473.9" y="232.5" text-anchor="middle" font-size="3.5" fill="#64748B">UltraHonk on BN254</text>
  </g>
  <g filter="url(#shadow)">
    <rect x="211.9" y="218.0" width="88.4" height="20" rx="3" fill="#fff" stroke="#E2E5EA" stroke-width="0.5"/>
    <rect x="214.9" y="221.0" width="1.4" height="14" rx="0.6" fill="#3B82F6"/>
    <text x="256.1" y="227.5" text-anchor="middle" font-size="4.8" font-weight="600" fill="#1E293B">Fee Pool</text>
    <text x="256.1" y="232.5" text-anchor="middle" font-size="3.5" fill="#64748B">Protocol-controlled</text>
  </g>
  <rect x="88.7" y="65.0" width="32.8" height="6.0" rx="1" fill="#F8F9FB"/>
  <text x="105.1" y="70.0" font-size="4" fill="#1E293B" font-weight="500" text-anchor="middle">stake + vote</text>
  <rect x="216.6" y="65.0" width="42.4" height="6.0" rx="1" fill="#F8F9FB"/>
  <text x="237.8" y="70.0" font-size="4" fill="#1E293B" font-weight="500" text-anchor="middle">post agent stake</text>
  <rect x="283.5" y="65.0" width="28.0" height="6.0" rx="1" fill="#F8F9FB"/>
  <text x="297.5" y="70.0" font-size="4" fill="#1E293B" font-weight="500" text-anchor="middle">set policy</text>
  <rect x="376.8" y="65.0" width="52.0" height="6.0" rx="1" fill="#F8F9FB"/>
  <text x="402.8" y="70.0" font-size="4" fill="#1E293B" font-weight="500" text-anchor="middle">lock + sign (scoped)</text>
  <rect x="212.4" y="57.0" width="44.8" height="6.0" rx="1" fill="#F8F9FB"/>
  <text x="234.8" y="62.0" font-size="4" fill="#1E293B" font-weight="500" text-anchor="middle">transition to DAO</text>
  <rect x="174.8" y="130.0" width="42.4" height="6.0" rx="1" fill="#F8F9FB"/>
  <text x="196.0" y="135.0" font-size="4" fill="#1E293B" font-weight="500" text-anchor="middle">resolve / govern</text>
  <rect x="104.2" y="130.0" width="42.4" height="6.0" rx="1" fill="#F8F9FB"/>
  <text x="125.4" y="135.0" font-size="4" fill="#1E293B" font-weight="500" text-anchor="middle">resolve / govern</text>
  <rect x="171.8" y="121.0" width="35.2" height="6.0" rx="1" fill="#F8F9FB"/>
  <text x="189.4" y="126.0" font-size="4" fill="#1E293B" font-weight="500" text-anchor="middle">trigger slash</text>
  <rect x="192.8" y="181.0" width="35.2" height="6.0" rx="1" fill="#F8F9FB"/>
  <text x="210.4" y="186.0" font-size="4" fill="#1E293B" font-weight="500" text-anchor="middle">slashed funds</text>
  <rect x="293.9" y="130.0" width="37.6" height="6.0" rx="1" fill="#F8F9FB"/>
  <text x="312.7" y="135.0" font-size="4" fill="#1E293B" font-weight="500" text-anchor="middle">lock_for_order</text>
  <rect x="295.8" y="192.0" width="30.4" height="6.0" rx="1" fill="#F8F9FB"/>
  <text x="311.0" y="197.0" font-size="4" fill="#1E293B" font-weight="500" text-anchor="middle">lookup slot</text>
  <rect x="182.4" y="192.0" width="40.0" height="6.0" rx="1" fill="#F8F9FB"/>
  <text x="202.4" y="197.0" font-size="4" fill="#1E293B" font-weight="500" text-anchor="middle">appendOrderHash</text>
  <rect x="339.0" y="192.0" width="52.0" height="6.0" rx="1" fill="#F8F9FB"/>
  <text x="365.0" y="197.0" font-size="4" fill="#1E293B" font-weight="500" text-anchor="middle">verify deposit proof</text>
  <rect x="237.3" y="192.0" width="37.6" height="6.0" rx="1" fill="#F8F9FB"/>
  <text x="256.1" y="197.0" font-size="4" fill="#1E293B" font-weight="500" text-anchor="middle">0.2% on unlock</text>
  <rect x="111.7" y="192.0" width="40.0" height="6.0" rx="1" fill="#F8F9FB"/>
  <text x="131.7" y="197.0" font-size="4" fill="#1E293B" font-weight="500" text-anchor="middle">appendOrderHash</text>
</svg>