<svg xmlns="http://www.w3.org/2000/svg" width="1358" height="645" viewBox="0 0 543 258" font-family="Arial, sans-serif">
  <defs>
    <marker id="ah" viewBox="0 0 8 6" refX="8" refY="3"
      markerWidth="4" markerHeight="3" orient="auto">
      <path d="M0.5,0.5 L7,3 L0.5,5.5" fill="none" stroke="#94A3B8"
        stroke-width="1.2" stroke-linejoin="round" stroke-linecap="round"/>
    </marker>
    <filter id="shadow" x="-6%" y="-8%" width="112%" height="128%">
      <feDropShadow dx="0" dy="0.5" stdDeviation="0.8"
        flood-color="#000" flood-opacity="0.05"/>
    </filter>
  </defs>
  <rect width="543" height="258" fill="#F8F9FB" rx="3"/>
  <text x="272" y="11" text-anchor="middle" font-size="6" font-weight="700" fill="#1E293B">Phase 2 — BLS Auth &amp; Pre-auth Retirement (T1 end-state)</text>
  <rect x="197" y="16" width="150" height="10" rx="3" fill="#fff" stroke="#E2E5EA" stroke-width="0.4"/>
  <rect x="202" y="18.5" width="5" height="5" rx="2.5" fill="#fff" stroke="#E2E5EA" stroke-width="0.4"/>
  <text x="210" y="22.5" font-size="3.5" fill="#1E293B">Actor</text>
  <rect x="242" y="18.5" width="5" height="5" rx="1.5" fill="#fff" stroke="#E2E5EA" stroke-width="0.4"/>
  <rect x="243" y="19.5" width="0.8" height="3" rx="0.4" fill="#3B82F6"/>
  <text x="250" y="22.5" font-size="3.5" fill="#1E293B">Protocol</text>
  <rect x="290" y="18.5" width="5" height="5" rx="1.5" fill="#fff" stroke="#E2E5EA" stroke-width="0.4"/>
  <rect x="291" y="19.5" width="0.8" height="3" rx="0.4" fill="#F59E0B"/>
  <text x="298" y="22.5" font-size="3.5" fill="#1E293B">External</text>
  <path d="M93.0,46.0 C93.0,70.0 79.6,70.0 79.6,94.0" fill="none" stroke="#94A3B8" stroke-width="0.5" marker-end="url(#ah)"/>
  <path d="M196.2,46.0 C196.2,70.0 79.6,70.0 79.6,94.0" fill="none" stroke="#94A3B8" stroke-width="0.5" marker-end="url(#ah)"/>
  <path d="M93.0,46.0 C93.0,70.0 228.0,70.0 228.0,94.0" fill="none" stroke="#94A3B8" stroke-width="0.5" marker-end="url(#ah)"/>
  <path d="M196.2,46.0 C196.2,70.0 340.2,70.0 340.2,94.0" fill="none" stroke="#94A3B8" stroke-width="0.5" marker-end="url(#ah)"/>
  <path d="M303.0,46.0 C303.0,70.0 228.0,70.0 228.0,94.0" fill="none" stroke="#94A3B8" stroke-width="0.5" marker-end="url(#ah)"/>
  <path d="M303.0,46.0 C303.0,70.0 340.2,70.0 340.2,94.0" fill="none" stroke="#94A3B8" stroke-width="0.5" marker-end="url(#ah)"/>
  <path d="M422.4,46.0 C422.4,70.0 228.0,70.0 228.0,94.0" fill="none" stroke="#94A3B8" stroke-width="0.5" marker-end="url(#ah)"/>
  <path d="M422.4,46.0 C422.4,70.0 340.2,70.0 340.2,94.0" fill="none" stroke="#94A3B8" stroke-width="0.5" marker-end="url(#ah)"/>
  <path d="M176.6,112.0 C162.4,134.0 143.4,134.0 129.2,114.0" fill="none" stroke="#94A3B8" stroke-width="0.5" marker-end="url(#ah)"/>
  <path d="M228.0,114.0 C228.0,135.0 248.0,135.0 248.0,156.0" fill="none" stroke="#94A3B8" stroke-width="0.5" marker-end="url(#ah)"/>
  <path d="M228.0,114.0 C228.0,135.0 360.2,135.0 360.2,156.0" fill="none" stroke="#94A3B8" stroke-width="0.5" marker-end="url(#ah)"/>
  <path d="M340.2,114.0 C340.2,135.0 248.0,135.0 248.0,156.0" fill="none" stroke="#94A3B8" stroke-width="0.5" marker-end="url(#ah)"/>
  <path d="M340.2,114.0 C340.2,135.0 360.2,135.0 360.2,156.0" fill="none" stroke="#94A3B8" stroke-width="0.5" marker-end="url(#ah)"/>
  <path d="M360.2,176.0 C360.2,197.0 348.4,197.0 348.4,218.0" fill="none" stroke="#94A3B8" stroke-width="0.5" marker-end="url(#ah)"/>
  <path d="M360.2,176.0 C360.2,197.0 464.8,197.0 464.8,218.0" fill="none" stroke="#94A3B8" stroke-width="0.5" marker-end="url(#ah)"/>
  <g filter="url(#shadow)">
    <rect x="50.6" y="32.0" width="84.8" height="14" rx="7" fill="#fff" stroke="#E2E5EA" stroke-width="0.5"/>
    <text x="93.0" y="40.8" text-anchor="middle" font-size="4.8" font-weight="600" fill="#1E293B">Maker</text>
  </g>
  <g filter="url(#shadow)">
    <rect x="157.4" y="32.0" width="77.6" height="14" rx="7" fill="#fff" stroke="#E2E5EA" stroke-width="0.5"/>
    <text x="196.2" y="40.8" text-anchor="middle" font-size="4.8" font-weight="600" fill="#1E293B">Bridger</text>
  </g>
  <g filter="url(#shadow)">
    <rect x="257.0" y="32.0" width="92.0" height="14" rx="7" fill="#fff" stroke="#E2E5EA" stroke-width="0.5"/>
    <text x="303.0" y="40.8" text-anchor="middle" font-size="4.8" font-weight="600" fill="#1E293B">Aggregator</text>
  </g>
  <g filter="url(#shadow)">
    <rect x="371.0" y="32.0" width="102.8" height="14" rx="7" fill="#fff" stroke="#E2E5EA" stroke-width="0.5"/>
    <text x="422.4" y="40.8" text-anchor="middle" font-size="4.8" font-weight="600" fill="#1E293B">Admin</text>
  </g>
  <g filter="url(#shadow)">
    <rect x="30.0" y="94.0" width="99.2" height="20" rx="3" fill="#fff" stroke="#E2E5EA" stroke-width="0.5"/>
    <rect x="33.0" y="97.0" width="1.4" height="14" rx="0.6" fill="#3B82F6"/>
    <text x="79.6" y="103.5" text-anchor="middle" font-size="4.8" font-weight="600" fill="#1E293B">BLSKeyRegistry</text>
    <text x="79.6" y="108.5" text-anchor="middle" font-size="3.5" fill="#64748B">Single key per address</text>
  </g>
  <g filter="url(#shadow)">
    <rect x="176.6" y="94.0" width="102.8" height="20" rx="3" fill="#fff" stroke="#E2E5EA" stroke-width="0.5"/>
    <rect x="179.6" y="97.0" width="1.4" height="14" rx="0.6" fill="#3B82F6"/>
    <text x="228.0" y="103.5" text-anchor="middle" font-size="4.8" font-weight="600" fill="#1E293B">AdManager</text>
    <text x="228.0" y="108.5" text-anchor="middle" font-size="3.5" fill="#64748B">Route-commitment per ad</text>
  </g>
  <g filter="url(#shadow)">
    <rect x="301.4" y="94.0" width="77.6" height="20" rx="3" fill="#fff" stroke="#E2E5EA" stroke-width="0.5"/>
    <rect x="304.4" y="97.0" width="1.4" height="14" rx="0.6" fill="#3B82F6"/>
    <text x="340.2" y="103.5" text-anchor="middle" font-size="4.8" font-weight="600" fill="#1E293B">OrderPortal</text>
    <text x="340.2" y="108.5" text-anchor="middle" font-size="3.5" fill="#64748B">Bridger deposits</text>
  </g>
  <g filter="url(#shadow)">
    <rect x="200.2" y="156.0" width="95.6" height="20" rx="3" fill="#fff" stroke="#E2E5EA" stroke-width="0.5"/>
    <rect x="203.2" y="159.0" width="1.4" height="14" rx="0.6" fill="#3B82F6"/>
    <text x="248.0" y="165.5" text-anchor="middle" font-size="4.8" font-weight="600" fill="#1E293B">MerkleManager</text>
    <text x="248.0" y="170.5" text-anchor="middle" font-size="3.5" fill="#64748B">Side-bound MMR leaves</text>
  </g>
  <g filter="url(#shadow)">
    <rect x="317.8" y="156.0" width="84.8" height="20" rx="3" fill="#fff" stroke="#E2E5EA" stroke-width="0.5"/>
    <rect x="320.8" y="159.0" width="1.4" height="14" rx="0.6" fill="#3B82F6"/>
    <text x="360.2" y="165.5" text-anchor="middle" font-size="4.8" font-weight="600" fill="#1E293B">Verifier</text>
    <text x="360.2" y="170.5" text-anchor="middle" font-size="3.5" fill="#64748B">UltraHonk on BN254</text>
  </g>
  <g filter="url(#shadow)">
    <rect x="302.4" y="218.0" width="92.0" height="20" rx="3" fill="#fff" stroke="#E2E5EA" stroke-width="0.5"/>
    <rect x="305.4" y="221.0" width="1.4" height="14" rx="0.6" fill="#F59E0B"/>
    <text x="348.4" y="227.5" text-anchor="middle" font-size="4.8" font-weight="600" fill="#1E293B">Deposit Circuit</text>
    <text x="348.4" y="232.5" text-anchor="middle" font-size="3.5" fill="#64748B">Noir / off-chain</text>
  </g>
  <g filter="url(#shadow)">
    <rect x="416.4" y="218.0" width="96.8" height="20" rx="3" fill="#fff" stroke="#E2E5EA" stroke-width="0.5"/>
    <rect x="419.4" y="221.0" width="1.4" height="14" rx="0.6" fill="#F59E0B"/>
    <text x="464.8" y="227.5" text-anchor="middle" font-size="4.8" font-weight="600" fill="#1E293B">BLS Auth Circuit</text>
    <text x="464.8" y="232.5" text-anchor="middle" font-size="3.5" fill="#64748B">Noir / standalone</text>
  </g>
  <rect x="66.3" y="65.0" width="40.0" height="6.0" rx="1" fill="#F8F9FB"/>
  <text x="86.3" y="70.0" font-size="4" fill="#1E293B" font-weight="500" text-anchor="middle">register pubkey</text>
  <rect x="117.9" y="65.0" width="40.0" height="6.0" rx="1" fill="#F8F9FB"/>
  <text x="137.9" y="70.0" font-size="4" fill="#1E293B" font-weight="500" text-anchor="middle">register pubkey</text>
  <rect x="130.9" y="57.0" width="59.2" height="6.0" rx="1" fill="#F8F9FB"/>
  <text x="160.5" y="62.0" font-size="4" fill="#1E293B" font-weight="500" text-anchor="middle">createAd / lockForOrder</text>
  <rect x="253.0" y="65.0" width="30.4" height="6.0" rx="1" fill="#F8F9FB"/>
  <text x="268.2" y="70.0" font-size="4" fill="#1E293B" font-weight="500" text-anchor="middle">createOrder</text>
  <rect x="244.3" y="57.0" width="42.4" height="6.0" rx="1" fill="#F8F9FB"/>
  <text x="265.5" y="62.0" font-size="4" fill="#1E293B" font-weight="500" text-anchor="middle">unlock + agg sig</text>
  <rect x="300.4" y="65.0" width="42.4" height="6.0" rx="1" fill="#F8F9FB"/>
  <text x="321.6" y="70.0" font-size="4" fill="#1E293B" font-weight="500" text-anchor="middle">unlock + agg sig</text>
  <rect x="294.4" y="57.0" width="61.6" height="6.0" rx="1" fill="#F8F9FB"/>
  <text x="325.2" y="62.0" font-size="4" fill="#1E293B" font-weight="500" text-anchor="middle">config (no timelock yet)</text>
  <rect x="361.3" y="65.0" width="40.0" height="6.0" rx="1" fill="#F8F9FB"/>
  <text x="381.3" y="70.0" font-size="4" fill="#1E293B" font-weight="500" text-anchor="middle">pause / unpause</text>
  <rect x="134.1" y="133.0" width="37.6" height="6.0" rx="1" fill="#F8F9FB"/>
  <text x="152.9" y="138.0" font-size="4" fill="#1E293B" font-weight="500" text-anchor="middle">lookup pkMaker</text>
  <rect x="218.0" y="130.0" width="40.0" height="6.0" rx="1" fill="#F8F9FB"/>
  <text x="238.0" y="135.0" font-size="4" fill="#1E293B" font-weight="500" text-anchor="middle">appendOrderHash</text>
  <rect x="268.1" y="130.0" width="52.0" height="6.0" rx="1" fill="#F8F9FB"/>
  <text x="294.1" y="135.0" font-size="4" fill="#1E293B" font-weight="500" text-anchor="middle">verify deposit proof</text>
  <rect x="274.1" y="122.0" width="40.0" height="6.0" rx="1" fill="#F8F9FB"/>
  <text x="294.1" y="127.0" font-size="4" fill="#1E293B" font-weight="500" text-anchor="middle">appendOrderHash</text>
  <rect x="324.2" y="130.0" width="52.0" height="6.0" rx="1" fill="#F8F9FB"/>
  <text x="350.2" y="135.0" font-size="4" fill="#1E293B" font-weight="500" text-anchor="middle">verify deposit proof</text>
  <rect x="335.5" y="192.0" width="37.6" height="6.0" rx="1" fill="#F8F9FB"/>
  <text x="354.3" y="197.0" font-size="4" fill="#1E293B" font-weight="500" text-anchor="middle">ZK proof input</text>
  <rect x="384.1" y="192.0" width="56.8" height="6.0" rx="1" fill="#F8F9FB"/>
  <text x="412.5" y="197.0" font-size="4" fill="#1E293B" font-weight="500" text-anchor="middle">off-chain attestations</text>
</svg>