<svg xmlns="http://www.w3.org/2000/svg" width="1766" height="645" viewBox="0 0 706 258" font-family="Arial, sans-serif">
  <defs>
    <marker id="ah" viewBox="0 0 8 6" refX="8" refY="3"
      markerWidth="4" markerHeight="3" orient="auto">
      <path d="M0.5,0.5 L7,3 L0.5,5.5" fill="none" stroke="#94A3B8"
        stroke-width="1.2" stroke-linejoin="round" stroke-linecap="round"/>
    </marker>
    <filter id="shadow" x="-6%" y="-8%" width="112%" height="128%">
      <feDropShadow dx="0" dy="0.5" stdDeviation="0.8"
        flood-color="#000" flood-opacity="0.05"/>
    </filter>
  </defs>
  <rect width="706" height="258" fill="#F8F9FB" rx="3"/>
  <text x="353" y="11" text-anchor="middle" font-size="6" font-weight="700" fill="#1E293B">Phase 4 — Mainnet Launch (T3 end-state)</text>
  <rect x="278" y="16" width="150" height="10" rx="3" fill="#fff" stroke="#E2E5EA" stroke-width="0.4"/>
  <rect x="283" y="18.5" width="5" height="5" rx="2.5" fill="#fff" stroke="#E2E5EA" stroke-width="0.4"/>
  <text x="291" y="22.5" font-size="3.5" fill="#1E293B">Actor</text>
  <rect x="323" y="18.5" width="5" height="5" rx="1.5" fill="#fff" stroke="#E2E5EA" stroke-width="0.4"/>
  <rect x="324" y="19.5" width="0.8" height="3" rx="0.4" fill="#3B82F6"/>
  <text x="331" y="22.5" font-size="3.5" fill="#1E293B">Protocol</text>
  <rect x="371" y="18.5" width="5" height="5" rx="1.5" fill="#fff" stroke="#E2E5EA" stroke-width="0.4"/>
  <rect x="372" y="19.5" width="0.8" height="3" rx="0.4" fill="#F59E0B"/>
  <text x="379" y="22.5" font-size="3.5" fill="#1E293B">External</text>
  <path d="M65.2,46.0 C65.2,70.0 87.0,70.0 87.0,94.0" fill="none" stroke="#94A3B8" stroke-width="0.5" marker-end="url(#ah)"/>
  <path d="M155.8,46.0 C155.8,70.0 87.0,70.0 87.0,94.0" fill="none" stroke="#94A3B8" stroke-width="0.5" marker-end="url(#ah)"/>
  <path d="M247.2,46.0 C247.2,70.0 274.9,70.0 274.9,94.0" fill="none" stroke="#94A3B8" stroke-width="0.5" marker-end="url(#ah)"/>
  <path d="M476.0,46.0 C476.0,70.0 518.3,70.0 518.3,94.0" fill="none" stroke="#94A3B8" stroke-width="0.5" marker-end="url(#ah)"/>
  <path d="M345.6,46.0 C345.6,70.0 411.5,70.0 411.5,94.0" fill="none" stroke="#94A3B8" stroke-width="0.5" marker-end="url(#ah)"/>
  <path d="M345.6,46.0 C345.6,70.0 274.9,70.0 274.9,94.0" fill="none" stroke="#94A3B8" stroke-width="0.5" marker-end="url(#ah)"/>
  <path d="M475.9,112.0 C469.3,126.0 460.5,126.0 453.9,114.0" fill="none" stroke="#94A3B8" stroke-width="0.5" marker-end="url(#ah)"/>
  <path d="M475.9,112.0 C426.5,130.0 360.7,130.0 311.3,114.0" fill="none" stroke="#94A3B8" stroke-width="0.5" marker-end="url(#ah)"/>
  <path d="M129.4,112.0 C201.3,134.0 297.2,134.0 369.1,114.0" fill="none" stroke="#94A3B8" stroke-width="0.5" marker-end="url(#ah)"/>
  <path d="M411.5,114.0 C411.5,135.0 419.3,135.0 419.3,156.0" fill="none" stroke="#94A3B8" stroke-width="0.5" marker-end="url(#ah)"/>
  <path d="M411.5,114.0 C411.5,135.0 312.5,135.0 312.5,156.0" fill="none" stroke="#94A3B8" stroke-width="0.5" marker-end="url(#ah)"/>
  <path d="M411.5,114.0 C411.5,135.0 527.3,135.0 527.3,156.0" fill="none" stroke="#94A3B8" stroke-width="0.5" marker-end="url(#ah)"/>
  <path d="M411.5,114.0 C411.5,135.0 634.1,135.0 634.1,156.0" fill="none" stroke="#94A3B8" stroke-width="0.5" marker-end="url(#ah)"/>
  <path d="M274.9,114.0 C274.9,135.0 312.5,135.0 312.5,156.0" fill="none" stroke="#94A3B8" stroke-width="0.5" marker-end="url(#ah)"/>
  <path d="M312.5,176.0 C312.5,197.0 305.1,197.0 305.1,218.0" fill="none" stroke="#94A3B8" stroke-width="0.5" marker-end="url(#ah)"/>
  <g filter="url(#shadow)">
    <rect x="30.0" y="32.0" width="70.4" height="14" rx="7" fill="#fff" stroke="#E2E5EA" stroke-width="0.5"/>
    <text x="65.2" y="40.8" text-anchor="middle" font-size="4.8" font-weight="600" fill="#1E293B">Maker</text>
  </g>
  <g filter="url(#shadow)">
    <rect x="219.2" y="32.0" width="56.0" height="14" rx="7" fill="#fff" stroke="#E2E5EA" stroke-width="0.5"/>
    <text x="247.2" y="40.8" text-anchor="middle" font-size="4.8" font-weight="600" fill="#1E293B">Bridger</text>
  </g>
  <g filter="url(#shadow)">
    <rect x="122.4" y="32.0" width="66.8" height="14" rx="7" fill="#fff" stroke="#E2E5EA" stroke-width="0.5"/>
    <text x="155.8" y="40.8" text-anchor="middle" font-size="4.8" font-weight="600" fill="#1E293B">Agent</text>
  </g>
  <g filter="url(#shadow)">
    <rect x="432.4" y="32.0" width="87.2" height="14" rx="7" fill="#fff" stroke="#E2E5EA" stroke-width="0.5"/>
    <text x="476.0" y="40.8" text-anchor="middle" font-size="4.8" font-weight="600" fill="#1E293B">Admin Multisig</text>
  </g>
  <g filter="url(#shadow)">
    <rect x="297.2" y="32.0" width="96.8" height="14" rx="7" fill="#fff" stroke="#E2E5EA" stroke-width="0.5"/>
    <text x="345.6" y="40.8" text-anchor="middle" font-size="4.8" font-weight="600" fill="#1E293B">Arbiter Multisig</text>
  </g>
  <g filter="url(#shadow)">
    <rect x="475.9" y="94.0" width="84.8" height="20" rx="3" fill="#fff" stroke="#E2E5EA" stroke-width="0.5"/>
    <rect x="478.9" y="97.0" width="1.4" height="14" rx="0.6" fill="#3B82F6"/>
    <text x="518.3" y="103.5" text-anchor="middle" font-size="4.8" font-weight="600" fill="#1E293B">Timelock</text>
    <text x="518.3" y="108.5" text-anchor="middle" font-size="3.5" fill="#64748B">24h on admin calls</text>
  </g>
  <g filter="url(#shadow)">
    <rect x="44.6" y="94.0" width="84.8" height="20" rx="3" fill="#fff" stroke="#E2E5EA" stroke-width="0.5"/>
    <rect x="47.6" y="97.0" width="1.4" height="14" rx="0.6" fill="#3B82F6"/>
    <text x="87.0" y="103.5" text-anchor="middle" font-size="4.8" font-weight="600" fill="#1E293B">Agent Account</text>
    <text x="87.0" y="108.5" text-anchor="middle" font-size="3.5" fill="#64748B">Maker-owned policy</text>
  </g>
  <g filter="url(#shadow)">
    <rect x="369.1" y="94.0" width="84.8" height="20" rx="3" fill="#fff" stroke="#E2E5EA" stroke-width="0.5"/>
    <rect x="372.1" y="97.0" width="1.4" height="14" rx="0.6" fill="#3B82F6"/>
    <text x="411.5" y="103.5" text-anchor="middle" font-size="4.8" font-weight="600" fill="#1E293B">AdManager</text>
    <text x="411.5" y="108.5" text-anchor="middle" font-size="3.5" fill="#64748B">Fees + bond config</text>
  </g>
  <g filter="url(#shadow)">
    <rect x="238.5" y="94.0" width="72.8" height="20" rx="3" fill="#fff" stroke="#E2E5EA" stroke-width="0.5"/>
    <rect x="241.5" y="97.0" width="1.4" height="14" rx="0.6" fill="#3B82F6"/>
    <text x="274.9" y="103.5" text-anchor="middle" font-size="4.8" font-weight="600" fill="#1E293B">OrderPortal</text>
    <text x="274.9" y="108.5" text-anchor="middle" font-size="3.5" fill="#64748B">USDC route</text>
  </g>
  <g filter="url(#shadow)">
    <rect x="375.7" y="156.0" width="87.2" height="20" rx="3" fill="#fff" stroke="#E2E5EA" stroke-width="0.5"/>
    <rect x="378.7" y="159.0" width="1.4" height="14" rx="0.6" fill="#3B82F6"/>
    <text x="419.3" y="165.5" text-anchor="middle" font-size="4.8" font-weight="600" fill="#1E293B">BLSKeyRegistry</text>
    <text x="419.3" y="170.5" text-anchor="middle" font-size="3.5" fill="#64748B">v2 multi-slot</text>
  </g>
  <g filter="url(#shadow)">
    <rect x="271.3" y="156.0" width="82.4" height="20" rx="3" fill="#fff" stroke="#E2E5EA" stroke-width="0.5"/>
    <rect x="274.3" y="159.0" width="1.4" height="14" rx="0.6" fill="#3B82F6"/>
    <text x="312.5" y="165.5" text-anchor="middle" font-size="4.8" font-weight="600" fill="#1E293B">MerkleManager</text>
    <text x="312.5" y="170.5" text-anchor="middle" font-size="3.5" fill="#64748B">Side-bound MMR</text>
  </g>
  <g filter="url(#shadow)">
    <rect x="484.9" y="156.0" width="84.8" height="20" rx="3" fill="#fff" stroke="#E2E5EA" stroke-width="0.5"/>
    <rect x="487.9" y="159.0" width="1.4" height="14" rx="0.6" fill="#3B82F6"/>
    <text x="527.3" y="165.5" text-anchor="middle" font-size="4.8" font-weight="600" fill="#1E293B">Verifier</text>
    <text x="527.3" y="170.5" text-anchor="middle" font-size="3.5" fill="#64748B">UltraHonk on BN254</text>
  </g>
  <g filter="url(#shadow)">
    <rect x="591.7" y="156.0" width="84.8" height="20" rx="3" fill="#fff" stroke="#E2E5EA" stroke-width="0.5"/>
    <rect x="594.7" y="159.0" width="1.4" height="14" rx="0.6" fill="#3B82F6"/>
    <text x="634.1" y="165.5" text-anchor="middle" font-size="4.8" font-weight="600" fill="#1E293B">Fee Pool</text>
    <text x="634.1" y="170.5" text-anchor="middle" font-size="3.5" fill="#64748B">0.2% protocol fees</text>
  </g>
  <g filter="url(#shadow)">
    <rect x="257.3" y="218.0" width="95.6" height="20" rx="3" fill="#fff" stroke="#E2E5EA" stroke-width="0.5"/>
    <rect x="260.3" y="221.0" width="1.4" height="14" rx="0.6" fill="#F59E0B"/>
    <text x="305.1" y="227.5" text-anchor="middle" font-size="4.8" font-weight="600" fill="#1E293B">Reconciliation</text>
    <text x="305.1" y="232.5" text-anchor="middle" font-size="3.5" fill="#64748B">Off-chain HA listener</text>
  </g>
  <rect x="62.1" y="65.0" width="28.0" height="6.0" rx="1" fill="#F8F9FB"/>
  <text x="76.1" y="70.0" font-size="4" fill="#1E293B" font-weight="500" text-anchor="middle">set policy</text>
  <rect x="95.4" y="65.0" width="52.0" height="6.0" rx="1" fill="#F8F9FB"/>
  <text x="121.4" y="70.0" font-size="4" fill="#1E293B" font-weight="500" text-anchor="middle">lock + sign (scoped)</text>
  <rect x="245.9" y="65.0" width="30.4" height="6.0" rx="1" fill="#F8F9FB"/>
  <text x="261.1" y="70.0" font-size="4" fill="#1E293B" font-weight="500" text-anchor="middle">createOrder</text>
  <rect x="473.6" y="65.0" width="47.2" height="6.0" rx="1" fill="#F8F9FB"/>
  <text x="497.2" y="70.0" font-size="4" fill="#1E293B" font-weight="500" text-anchor="middle">queue admin action</text>
  <rect x="358.5" y="65.0" width="40.0" height="6.0" rx="1" fill="#F8F9FB"/>
  <text x="378.5" y="70.0" font-size="4" fill="#1E293B" font-weight="500" text-anchor="middle">resolve_dispute</text>
  <rect x="290.3" y="65.0" width="40.0" height="6.0" rx="1" fill="#F8F9FB"/>
  <text x="310.3" y="70.0" font-size="4" fill="#1E293B" font-weight="500" text-anchor="middle">resolve_dispute</text>
  <rect x="446.1" y="125.0" width="37.6" height="6.0" rx="1" fill="#F8F9FB"/>
  <text x="464.9" y="130.0" font-size="4" fill="#1E293B" font-weight="500" text-anchor="middle">execute (&gt;24h)</text>
  <rect x="374.8" y="129.0" width="37.6" height="6.0" rx="1" fill="#F8F9FB"/>
  <text x="393.6" y="134.0" font-size="4" fill="#1E293B" font-weight="500" text-anchor="middle">execute (&gt;24h)</text>
  <rect x="230.4" y="133.0" width="37.6" height="6.0" rx="1" fill="#F8F9FB"/>
  <text x="249.2" y="138.0" font-size="4" fill="#1E293B" font-weight="500" text-anchor="middle">lock_for_order</text>
  <rect x="400.2" y="122.0" width="30.4" height="6.0" rx="1" fill="#F8F9FB"/>
  <text x="415.4" y="127.0" font-size="4" fill="#1E293B" font-weight="500" text-anchor="middle">lookup slot</text>
  <rect x="342.0" y="122.0" width="40.0" height="6.0" rx="1" fill="#F8F9FB"/>
  <text x="362.0" y="127.0" font-size="4" fill="#1E293B" font-weight="500" text-anchor="middle">appendOrderHash</text>
  <rect x="443.4" y="134.0" width="52.0" height="6.0" rx="1" fill="#F8F9FB"/>
  <text x="469.4" y="139.0" font-size="4" fill="#1E293B" font-weight="500" text-anchor="middle">verify deposit proof</text>
  <rect x="504.0" y="130.0" width="37.6" height="6.0" rx="1" fill="#F8F9FB"/>
  <text x="522.8" y="135.0" font-size="4" fill="#1E293B" font-weight="500" text-anchor="middle">0.2% on unlock</text>
  <rect x="273.7" y="130.0" width="40.0" height="6.0" rx="1" fill="#F8F9FB"/>
  <text x="293.7" y="135.0" font-size="4" fill="#1E293B" font-weight="500" text-anchor="middle">appendOrderHash</text>
  <rect x="286.4" y="192.0" width="44.8" height="6.0" rx="1" fill="#F8F9FB"/>
  <text x="308.8" y="197.0" font-size="4" fill="#1E293B" font-weight="500" text-anchor="middle">settlement events</text>
</svg>