<svg xmlns="http://www.w3.org/2000/svg" width="1064" height="645" viewBox="0 0 426 258" font-family="Arial, sans-serif">
  <defs>
    <marker id="ah" viewBox="0 0 8 6" refX="8" refY="3"
      markerWidth="4" markerHeight="3" orient="auto">
      <path d="M0.5,0.5 L7,3 L0.5,5.5" fill="none" stroke="#94A3B8"
        stroke-width="1.2" stroke-linejoin="round" stroke-linecap="round"/>
    </marker>
    <filter id="shadow" x="-6%" y="-8%" width="112%" height="128%">
      <feDropShadow dx="0" dy="0.5" stdDeviation="0.8"
        flood-color="#000" flood-opacity="0.05"/>
    </filter>
  </defs>
  <rect width="426" height="258" fill="#F8F9FB" rx="3"/>
  <text x="213" y="11" text-anchor="middle" font-size="6" font-weight="700" fill="#1E293B">Phase 1 — Pre-auth MVP (Live on testnet)</text>
  <rect x="138" y="16" width="150" height="10" rx="3" fill="#fff" stroke="#E2E5EA" stroke-width="0.4"/>
  <rect x="143" y="18.5" width="5" height="5" rx="2.5" fill="#fff" stroke="#E2E5EA" stroke-width="0.4"/>
  <text x="151" y="22.5" font-size="3.5" fill="#1E293B">Actor</text>
  <rect x="183" y="18.5" width="5" height="5" rx="1.5" fill="#fff" stroke="#E2E5EA" stroke-width="0.4"/>
  <rect x="184" y="19.5" width="0.8" height="3" rx="0.4" fill="#3B82F6"/>
  <text x="191" y="22.5" font-size="3.5" fill="#1E293B">Protocol</text>
  <rect x="231" y="18.5" width="5" height="5" rx="1.5" fill="#fff" stroke="#E2E5EA" stroke-width="0.4"/>
  <rect x="232" y="19.5" width="0.8" height="3" rx="0.4" fill="#F59E0B"/>
  <text x="239" y="22.5" font-size="3.5" fill="#1E293B">External</text>
  <path d="M72.4,46.0 C72.4,70.0 132.6,70.0 132.6,94.0" fill="none" stroke="#94A3B8" stroke-width="0.5" marker-end="url(#ah)"/>
  <path d="M356.8,46.0 C356.8,70.0 230.4,70.0 230.4,94.0" fill="none" stroke="#94A3B8" stroke-width="0.5" marker-end="url(#ah)"/>
  <path d="M177.4,46.0 C177.4,70.0 132.6,70.0 132.6,94.0" fill="none" stroke="#94A3B8" stroke-width="0.5" marker-end="url(#ah)"/>
  <path d="M177.4,46.0 C177.4,70.0 230.4,70.0 230.4,94.0" fill="none" stroke="#94A3B8" stroke-width="0.5" marker-end="url(#ah)"/>
  <path d="M268.0,46.0 C268.0,70.0 132.6,70.0 132.6,94.0" fill="none" stroke="#94A3B8" stroke-width="0.5" marker-end="url(#ah)"/>
  <path d="M268.0,46.0 C268.0,70.0 230.4,70.0 230.4,94.0" fill="none" stroke="#94A3B8" stroke-width="0.5" marker-end="url(#ah)"/>
  <path d="M132.6,114.0 C132.6,135.0 304.5,135.0 304.5,156.0" fill="none" stroke="#94A3B8" stroke-width="0.5" marker-end="url(#ah)"/>
  <path d="M132.6,114.0 C132.6,135.0 198.9,135.0 198.9,156.0" fill="none" stroke="#94A3B8" stroke-width="0.5" marker-end="url(#ah)"/>
  <path d="M132.6,114.0 C132.6,135.0 95.7,135.0 95.7,156.0" fill="none" stroke="#94A3B8" stroke-width="0.5" marker-end="url(#ah)"/>
  <path d="M230.4,114.0 C230.4,135.0 304.5,135.0 304.5,156.0" fill="none" stroke="#94A3B8" stroke-width="0.5" marker-end="url(#ah)"/>
  <path d="M230.4,114.0 C230.4,135.0 198.9,135.0 198.9,156.0" fill="none" stroke="#94A3B8" stroke-width="0.5" marker-end="url(#ah)"/>
  <path d="M198.9,176.0 C198.9,197.0 185.9,197.0 185.9,218.0" fill="none" stroke="#94A3B8" stroke-width="0.5" marker-end="url(#ah)"/>
  <g filter="url(#shadow)">
    <rect x="30.0" y="32.0" width="84.8" height="14" rx="7" fill="#fff" stroke="#E2E5EA" stroke-width="0.5"/>
    <text x="72.4" y="40.8" text-anchor="middle" font-size="4.8" font-weight="600" fill="#1E293B">Maker</text>
  </g>
  <g filter="url(#shadow)">
    <rect x="318.0" y="32.0" width="77.6" height="14" rx="7" fill="#fff" stroke="#E2E5EA" stroke-width="0.5"/>
    <text x="356.8" y="40.8" text-anchor="middle" font-size="4.8" font-weight="600" fill="#1E293B">Bridger</text>
  </g>
  <g filter="url(#shadow)">
    <rect x="136.8" y="32.0" width="81.2" height="14" rx="7" fill="#fff" stroke="#E2E5EA" stroke-width="0.5"/>
    <text x="177.4" y="40.8" text-anchor="middle" font-size="4.8" font-weight="600" fill="#1E293B">Relayer</text>
  </g>
  <g filter="url(#shadow)">
    <rect x="240.0" y="32.0" width="56.0" height="14" rx="7" fill="#fff" stroke="#E2E5EA" stroke-width="0.5"/>
    <text x="268.0" y="40.8" text-anchor="middle" font-size="4.8" font-weight="600" fill="#1E293B">Admin</text>
  </g>
  <g filter="url(#shadow)">
    <rect x="95.6" y="94.0" width="74.0" height="20" rx="3" fill="#fff" stroke="#E2E5EA" stroke-width="0.5"/>
    <rect x="98.6" y="97.0" width="1.4" height="14" rx="0.6" fill="#3B82F6"/>
    <text x="132.6" y="103.5" text-anchor="middle" font-size="4.8" font-weight="600" fill="#1E293B">AdManager</text>
    <text x="132.6" y="108.5" text-anchor="middle" font-size="3.5" fill="#64748B">Maker liquidity</text>
  </g>
  <g filter="url(#shadow)">
    <rect x="191.6" y="94.0" width="77.6" height="20" rx="3" fill="#fff" stroke="#E2E5EA" stroke-width="0.5"/>
    <rect x="194.6" y="97.0" width="1.4" height="14" rx="0.6" fill="#3B82F6"/>
    <text x="230.4" y="103.5" text-anchor="middle" font-size="4.8" font-weight="600" fill="#1E293B">OrderPortal</text>
    <text x="230.4" y="108.5" text-anchor="middle" font-size="3.5" fill="#64748B">Bridger deposits</text>
  </g>
  <g filter="url(#shadow)">
    <rect x="263.3" y="156.0" width="82.4" height="20" rx="3" fill="#fff" stroke="#E2E5EA" stroke-width="0.5"/>
    <rect x="266.3" y="159.0" width="1.4" height="14" rx="0.6" fill="#3B82F6"/>
    <text x="304.5" y="165.5" text-anchor="middle" font-size="4.8" font-weight="600" fill="#1E293B">MerkleManager</text>
    <text x="304.5" y="170.5" text-anchor="middle" font-size="3.5" fill="#64748B">Poseidon2 MMR</text>
  </g>
  <g filter="url(#shadow)">
    <rect x="156.5" y="156.0" width="84.8" height="20" rx="3" fill="#fff" stroke="#E2E5EA" stroke-width="0.5"/>
    <rect x="159.5" y="159.0" width="1.4" height="14" rx="0.6" fill="#3B82F6"/>
    <text x="198.9" y="165.5" text-anchor="middle" font-size="4.8" font-weight="600" fill="#1E293B">Verifier</text>
    <text x="198.9" y="170.5" text-anchor="middle" font-size="3.5" fill="#64748B">UltraHonk on BN254</text>
  </g>
  <g filter="url(#shadow)">
    <rect x="56.9" y="156.0" width="77.6" height="20" rx="3" fill="#fff" stroke="#E2E5EA" stroke-width="0.5"/>
    <rect x="59.9" y="159.0" width="1.4" height="14" rx="0.6" fill="#3B82F6"/>
    <text x="95.7" y="165.5" text-anchor="middle" font-size="4.8" font-weight="600" fill="#1E293B">wNativeToken</text>
    <text x="95.7" y="170.5" text-anchor="middle" font-size="3.5" fill="#64748B">Native wrap</text>
  </g>
  <g filter="url(#shadow)">
    <rect x="139.9" y="218.0" width="92.0" height="20" rx="3" fill="#fff" stroke="#E2E5EA" stroke-width="0.5"/>
    <rect x="142.9" y="221.0" width="1.4" height="14" rx="0.6" fill="#F59E0B"/>
    <text x="185.9" y="227.5" text-anchor="middle" font-size="4.8" font-weight="600" fill="#1E293B">Deposit Circuit</text>
    <text x="185.9" y="232.5" text-anchor="middle" font-size="3.5" fill="#64748B">Noir, off-chain</text>
  </g>
  <rect x="72.9" y="65.0" width="59.2" height="6.0" rx="1" fill="#F8F9FB"/>
  <text x="102.5" y="70.0" font-size="4" fill="#1E293B" font-weight="500" text-anchor="middle">createAd / lockForOrder</text>
  <rect x="278.4" y="65.0" width="30.4" height="6.0" rx="1" fill="#F8F9FB"/>
  <text x="293.6" y="70.0" font-size="4" fill="#1E293B" font-weight="500" text-anchor="middle">createOrder</text>
  <rect x="140.6" y="63.0" width="44.8" height="6.0" rx="1" fill="#F8F9FB"/>
  <text x="163.0" y="68.0" font-size="4" fill="#1E293B" font-weight="500" text-anchor="middle">pre-auth + unlock</text>
  <rect x="189.5" y="63.0" width="44.8" height="6.0" rx="1" fill="#F8F9FB"/>
  <text x="211.9" y="68.0" font-size="4" fill="#1E293B" font-weight="500" text-anchor="middle">pre-auth + unlock</text>
  <rect x="179.1" y="73.0" width="42.4" height="6.0" rx="1" fill="#F8F9FB"/>
  <text x="200.3" y="78.0" font-size="4" fill="#1E293B" font-weight="500" text-anchor="middle">config (instant)</text>
  <rect x="228.0" y="73.0" width="42.4" height="6.0" rx="1" fill="#F8F9FB"/>
  <text x="249.2" y="78.0" font-size="4" fill="#1E293B" font-weight="500" text-anchor="middle">config (instant)</text>
  <rect x="198.5" y="130.0" width="40.0" height="6.0" rx="1" fill="#F8F9FB"/>
  <text x="218.5" y="135.0" font-size="4" fill="#1E293B" font-weight="500" text-anchor="middle">appendOrderHash</text>
  <rect x="149.3" y="130.0" width="32.8" height="6.0" rx="1" fill="#F8F9FB"/>
  <text x="165.7" y="135.0" font-size="4" fill="#1E293B" font-weight="500" text-anchor="middle">verify proof</text>
  <rect x="96.5" y="130.0" width="35.2" height="6.0" rx="1" fill="#F8F9FB"/>
  <text x="114.1" y="135.0" font-size="4" fill="#1E293B" font-weight="500" text-anchor="middle">wrap / unwrap</text>
  <rect x="247.4" y="130.0" width="40.0" height="6.0" rx="1" fill="#F8F9FB"/>
  <text x="267.4" y="135.0" font-size="4" fill="#1E293B" font-weight="500" text-anchor="middle">appendOrderHash</text>
  <rect x="198.2" y="122.0" width="32.8" height="6.0" rx="1" fill="#F8F9FB"/>
  <text x="214.6" y="127.0" font-size="4" fill="#1E293B" font-weight="500" text-anchor="middle">verify proof</text>
  <rect x="173.6" y="192.0" width="37.6" height="6.0" rx="1" fill="#F8F9FB"/>
  <text x="192.4" y="197.0" font-size="4" fill="#1E293B" font-weight="500" text-anchor="middle">ZK proof input</text>
</svg>